<svg width="480" height="398" viewBox="0 0 480 398" fill="none" xmlns="http://www.w3.org/2000/svg">
<g clip-path="url(#clip0)">
<path opacity="0.1" d="M448.306 219.922C429.869 249.741 433.324 290.366 441.421 322.397C444.13 333.123 447.252 344.444 444.936 356.447C442.102 371.123 431.773 382.648 421.319 389.248C402.261 401.251 380.499 400.918 364.652 388.369C350.968 377.529 341.956 358.623 327.983 348.365C304.62 331.194 272.538 341.601 244.682 357.649C224.983 368.976 203.3 383.389 185.092 375.228C172.282 369.498 164.294 353.33 160.566 335.737C158.767 327.243 157.678 317.964 153.553 311.493C151.097 307.646 147.722 305.072 144.222 302.96C112.285 283.706 69.0738 299.804 38.2748 278.001C17.472 263.28 5.64647 232.873 1.75931 200.36C-2.12785 167.846 1.06837 133.056 5.06986 98.8034C7.91812 74.4506 11.7705 48.398 24.5554 28.5927C38.0809 7.6443 59.4007 -1.7241 77.9318 0.263892C96.4629 2.25188 112.553 13.9909 126.422 28.3392C143.755 46.2709 159.388 69.1725 181.821 74.9575C197.102 78.8987 213.789 74.3363 230.038 71.7569C257.169 67.4429 283.922 68.6805 310.486 70.3007C335.916 71.8513 361.501 73.7797 385.197 82.7256C401.963 89.0623 414.833 102.253 430.481 110.831C440.681 116.422 452.188 117.133 461.692 124.588C473.398 133.772 483.529 150.725 478.841 172.155C474.373 192.542 458.088 204.097 448.306 219.922Z" fill="#7431D7"/>
<path d="M330.304 152.518C330.304 152.518 380.51 110.458 391.674 89.2507C402.838 68.0438 417.05 49.7693 417.05 49.7693" stroke="#535461" stroke-width="2" stroke-miterlimit="10"/>
<path d="M410.449 97.1778L388.731 92.2824C388.731 92.2824 393.856 115.184 410.449 97.1778Z" fill="#7431D7"/>
<path d="M377.264 73.7991L389.76 92.511C389.76 92.511 365.329 94.2753 377.264 73.7991Z" fill="#7431D7"/>
<path d="M418.993 79.5891L399.145 76.1101C399.145 76.1101 411.612 95.0705 418.993 79.5891Z" fill="#7431D7"/>
<path d="M389.621 62.8651L399.399 75.6678C399.399 75.6678 382.09 77.3078 389.621 62.8651Z" fill="#7431D7"/>
<path d="M409.41 60.3155C409.41 60.3155 426.31 61.1207 428.299 62.7359C430.287 64.3511 425.779 73.8189 419.351 72.2733C412.924 70.7276 409.41 60.3155 409.41 60.3155Z" fill="#7431D7"/>
<path d="M402.654 45.2118C402.654 45.2118 409.559 57.7908 409.3 60.1863C409.042 62.5818 398.777 65.2706 396.704 56.2103C394.632 47.1501 402.654 45.2118 402.654 45.2118Z" fill="#7431D7"/>
<path d="M424.126 54.819C424.907 52.3444 423.534 49.7048 421.059 48.9234C418.584 48.1419 415.944 49.5145 415.163 51.9891C414.381 54.4637 415.754 57.1033 418.229 57.8847C420.704 58.6662 423.344 57.2936 424.126 54.819Z" fill="#FFD037"/>
<path d="M416.768 49.9835C417.55 47.5089 416.177 44.8693 413.702 44.0878C411.227 43.3064 408.587 44.679 407.806 47.1536C407.024 49.6282 408.397 52.2678 410.872 53.0492C413.347 53.8307 415.987 52.4581 416.768 49.9835Z" fill="#FFD037"/>
<path d="M173.709 317.397C173.709 317.397 181.767 293.432 130.687 264.541C130.687 264.541 78.8219 249.418 84.1257 197.482C84.1257 197.482 24.337 241.277 64.7943 297.065C105.252 352.853 140.171 340.676 140.171 340.676L173.709 317.397Z" fill="#7431D7"/>
<path d="M158.136 328.222C158.136 328.222 133.212 301.289 109.323 290.877C104.551 288.73 100.165 285.81 96.344 282.235C81.1135 268.319 74.4725 247.32 78.3994 227.068L84.1407 197.482" stroke="#535461" stroke-width="2" stroke-miterlimit="10"/>
<path d="M379.61 16.5003H95.9712V345.776H379.61V16.5003Z" fill="url(#paint0_linear)"/>
<path d="M376.309 20.3321H99.2767V341.934H376.309V20.3321Z" fill="#F7F7FD"/>
<path d="M186.042 56.5831H116.008V62.1594H186.042V56.5831Z" fill="#E2E2EC"/>
<path d="M235.621 70.2157H116.008V75.792H235.621V70.2157Z" fill="#E2E2EC"/>
<path d="M363.042 51.2553H313.339V94.1362H363.042V51.2553Z" fill="white"/>
<path d="M362.779 51.5038V93.8877H313.568V51.5038H362.779ZM363.276 51.0068H313.071V94.3847H363.276V51.0068Z" fill="#E2E2EC"/>
<path d="M312.842 51.2553H263.139V94.1362H312.842V51.2553Z" fill="white"/>
<path d="M312.574 51.5038V93.8877H263.363V51.5038H312.574ZM313.071 51.0068H262.866V94.3847H313.071V51.0068Z" fill="#E2E2EC"/>
<path d="M363.042 94.6332H313.339V137.514H363.042V94.6332Z" fill="white"/>
<path d="M362.779 94.8817V137.266H313.568V94.8817H362.779ZM363.276 94.3847H313.071V137.763H363.276V94.3847Z" fill="#E2E2EC"/>
<path d="M312.842 94.6332H263.139V137.514H312.842V94.6332Z" fill="white"/>
<path d="M312.574 94.8817V137.266H263.363V94.8817H312.574ZM313.071 94.3847H262.866V137.763H313.071V94.3847Z" fill="#E2E2EC"/>
<path d="M262.642 94.6332H212.939V137.514H262.642V94.6332Z" fill="white"/>
<path d="M262.393 94.8817V137.266H213.183V94.8817H262.393ZM262.89 94.3847H212.685V137.763H262.89V94.3847Z" fill="#E2E2EC"/>
<path d="M212.442 94.6332H162.739V137.514H212.442V94.6332Z" fill="white"/>
<path d="M212.193 94.8817V137.266H162.982V94.8817H212.193ZM212.69 94.3847H162.485V137.763H212.69V94.3847Z" fill="#E2E2EC"/>
<path d="M162.242 94.6332H112.539V137.514H162.242V94.6332Z" fill="white"/>
<path d="M161.993 94.8817V137.266H112.782V94.8817H161.993ZM162.49 94.3847H112.285V137.763H162.49V94.3847Z" fill="#E2E2EC"/>
<path d="M363.042 138.006H313.339V180.887H363.042V138.006Z" fill="white"/>
<path d="M362.779 138.26V180.643H313.568V138.26H362.779ZM363.276 137.763H313.071V181.14H363.276V137.763Z" fill="#E2E2EC"/>
<path d="M312.842 138.006H263.139V180.887H312.842V138.006Z" fill="white"/>
<path d="M312.574 138.26V180.643H263.363V138.26H312.574ZM313.071 137.763H262.866V181.14H313.071V137.763Z" fill="#E2E2EC"/>
<path d="M262.642 138.006H212.939V180.887H262.642V138.006Z" fill="white"/>
<path d="M262.393 138.26V180.643H213.183V138.26H262.393ZM262.89 137.763H212.685V181.14H262.89V137.763Z" fill="#E2E2EC"/>
<path d="M212.442 138.006H162.739V180.887H212.442V138.006Z" fill="white"/>
<path d="M212.193 138.26V180.643H162.982V138.26H212.193ZM212.69 137.763H162.485V181.14H212.69V137.763Z" fill="#E2E2EC"/>
<path d="M162.242 138.006H112.539V180.887H162.242V138.006Z" fill="white"/>
<path d="M161.993 138.26V180.643H112.782V138.26H161.993ZM162.49 137.763H112.285V181.14H162.49V137.763Z" fill="#E2E2EC"/>
<path d="M363.042 181.384H313.339V224.265H363.042V181.384Z" fill="white"/>
<path d="M362.779 181.632V224.016H313.568V181.632H362.779ZM363.276 181.135H313.071V224.513H363.276V181.135Z" fill="#E2E2EC"/>
<path d="M312.842 181.384H263.139V224.265H312.842V181.384Z" fill="white"/>
<path d="M312.574 181.632V224.016H263.363V181.632H312.574ZM313.071 181.135H262.866V224.513H313.071V181.135Z" fill="#E2E2EC"/>
<path d="M262.642 181.384H212.939V224.265H262.642V181.384Z" fill="white"/>
<path d="M262.393 181.632V224.016H213.183V181.632H262.393ZM262.89 181.135H212.685V224.513H262.89V181.135Z" fill="#E2E2EC"/>
<path d="M212.442 181.384H162.739V224.265H212.442V181.384Z" fill="white"/>
<path d="M212.193 181.632V224.016H162.982V181.632H212.193ZM212.69 181.135H162.485V224.513H212.69V181.135Z" fill="#E2E2EC"/>
<path d="M162.242 181.384H112.539V224.265H162.242V181.384Z" fill="white"/>
<path d="M161.993 181.632V224.016H112.782V181.632H161.993ZM162.49 181.135H112.285V224.513H162.49V181.135Z" fill="#E2E2EC"/>
<path d="M363.042 224.757H313.339V267.638H363.042V224.757Z" fill="white"/>
<path d="M362.779 225.01V267.389H313.568V225.01H362.779ZM363.276 224.513H313.071V267.886H363.276V224.513Z" fill="#E2E2EC"/>
<path d="M312.842 224.757H263.139V267.638H312.842V224.757Z" fill="white"/>
<path d="M312.574 225.01V267.389H263.363V225.01H312.574ZM313.071 224.513H262.866V267.886H313.071V224.513Z" fill="#E2E2EC"/>
<path d="M262.642 224.757H212.939V267.638H262.642V224.757Z" fill="white"/>
<path d="M262.393 225.01V267.389H213.183V225.01H262.393ZM262.89 224.513H212.685V267.886H262.89V224.513Z" fill="#E2E2EC"/>
<path d="M212.442 224.757H162.739V267.638H212.442V224.757Z" fill="white"/>
<path d="M212.193 225.01V267.389H162.982V225.01H212.193ZM212.69 224.513H162.485V267.886H212.69V224.513Z" fill="#E2E2EC"/>
<path d="M162.242 224.757H112.539V267.638H162.242V224.757Z" fill="white"/>
<path d="M161.993 225.01V267.389H112.782V225.01H161.993ZM162.49 224.513H112.285V267.886H162.49V224.513Z" fill="#E2E2EC"/>
<path d="M363.042 268.135H313.339V311.016H363.042V268.135Z" fill="white"/>
<path d="M362.779 268.383V310.767H313.568V268.383H362.779ZM363.276 267.886H313.071V311.264H363.276V267.886Z" fill="#E2E2EC"/>
<path d="M312.842 268.135H263.139V311.016H312.842V268.135Z" fill="white"/>
<path d="M312.574 268.383V310.767H263.363V268.383H312.574ZM313.071 267.886H262.866V311.264H313.071V267.886Z" fill="#E2E2EC"/>
<path d="M262.642 268.135H212.939V311.016H262.642V268.135Z" fill="white"/>
<path d="M262.393 268.383V310.767H213.183V268.383H262.393ZM262.89 267.886H212.685V311.264H262.89V267.886Z" fill="#E2E2EC"/>
<path d="M212.442 268.135H162.739V311.016H212.442V268.135Z" fill="white"/>
<path d="M212.193 268.383V310.767H162.982V268.383H212.193ZM212.69 267.886H162.485V311.264H212.69V267.886Z" fill="#E2E2EC"/>
<path d="M162.242 268.135H112.539V311.016H162.242V268.135Z" fill="white"/>
<path d="M161.993 268.383V310.767H112.782V268.383H161.993ZM162.49 267.886H112.285V311.264H162.49V267.886Z" fill="#E2E2EC"/>
<path d="M216.935 350.328C218.357 349.25 219.694 347.977 220.107 346.427C220.319 345.606 220.206 344.735 219.794 343.995C219.381 343.255 218.699 342.702 217.89 342.451C215.857 341.815 213.685 342.948 212.034 344.126C210.384 345.303 208.5 346.611 206.343 346.367C208.575 344.752 209.638 342.133 209.022 339.752C208.916 339.239 208.656 338.771 208.276 338.41C207.148 337.416 205.1 337.848 203.748 338.624C199.448 341.109 198.25 345.855 198.225 350.144C197.793 348.599 198.156 346.988 198.146 345.398C198.136 343.807 197.604 342.053 195.964 341.198C194.914 340.743 193.777 340.524 192.633 340.557C190.7 340.497 188.547 340.657 187.23 341.81C185.59 343.241 186.017 345.646 187.444 347.222C188.87 348.797 191.043 349.786 193.036 350.875C194.557 351.705 196.098 352.674 197.013 353.986C197.132 354.16 197.232 354.346 197.311 354.543H209.425C212.093 353.454 214.616 352.038 216.935 350.328Z" fill="#7431D7"/>
<path d="M119.095 103.987C120.66 103.987 121.929 102.718 121.929 101.154C121.929 99.5892 120.66 98.3209 119.095 98.3209C117.53 98.3209 116.262 99.5892 116.262 101.154C116.262 102.718 117.53 103.987 119.095 103.987Z" fill="#FC6681"/>
<path d="M126.174 103.987C127.739 103.987 129.007 102.718 129.007 101.154C129.007 99.5892 127.739 98.3209 126.174 98.3209C124.609 98.3209 123.34 99.5892 123.34 101.154C123.34 102.718 124.609 103.987 126.174 103.987Z" fill="#FFD037"/>
<path d="M219.148 145.983C220.712 145.983 221.981 144.715 221.981 143.15C221.981 141.585 220.712 140.317 219.148 140.317C217.583 140.317 216.314 141.585 216.314 143.15C216.314 144.715 217.583 145.983 219.148 145.983Z" fill="#7431D7"/>
<path d="M226.231 145.983C227.796 145.983 229.064 144.715 229.064 143.15C229.064 141.585 227.796 140.317 226.231 140.317C224.666 140.317 223.397 141.585 223.397 143.15C223.397 144.715 224.666 145.983 226.231 145.983Z" fill="#7431D7"/>
<path d="M370.642 227.142C372.207 227.142 373.476 225.874 373.476 224.31C373.476 222.745 372.207 221.477 370.642 221.477C369.078 221.477 367.809 222.745 367.809 224.31C367.809 225.874 369.078 227.142 370.642 227.142Z" fill="#7431D7"/>
<path d="M372.059 223.842C373.624 223.842 374.893 222.574 374.893 221.01C374.893 219.445 373.624 218.177 372.059 218.177C370.494 218.177 369.226 219.445 369.226 221.01C369.226 222.574 370.494 223.842 372.059 223.842Z" fill="#7431D7"/>
<path d="M373.476 221.01C375.041 221.01 376.309 219.741 376.309 218.177C376.309 216.612 375.041 215.344 373.476 215.344C371.911 215.344 370.643 216.612 370.643 218.177C370.643 219.741 371.911 221.01 373.476 221.01Z" fill="#7431D7"/>
<path d="M320.616 103.987C322.181 103.987 323.45 102.718 323.45 101.154C323.45 99.5892 322.181 98.3209 320.616 98.3209C319.052 98.3209 317.783 99.5892 317.783 101.154C317.783 102.718 319.052 103.987 320.616 103.987Z" fill="#7431D7"/>
<path d="M327.695 103.987C329.26 103.987 330.528 102.718 330.528 101.154C330.528 99.5892 329.26 98.3209 327.695 98.3209C326.13 98.3209 324.861 99.5892 324.861 101.154C324.861 102.718 326.13 103.987 327.695 103.987Z" fill="#7431D7"/>
<path d="M334.778 103.987C336.343 103.987 337.612 102.718 337.612 101.154C337.612 99.5892 336.343 98.3209 334.778 98.3209C333.213 98.3209 331.945 99.5892 331.945 101.154C331.945 102.718 333.213 103.987 334.778 103.987Z" fill="#7431D7"/>
<path d="M341.857 103.987C343.421 103.987 344.69 102.718 344.69 101.154C344.69 99.5892 343.421 98.3209 341.857 98.3209C340.292 98.3209 339.023 99.5892 339.023 101.154C339.023 102.718 340.292 103.987 341.857 103.987Z" fill="#7431D7"/>
<path d="M320.616 191.751C322.181 191.751 323.45 190.483 323.45 188.918C323.45 187.354 322.181 186.086 320.616 186.086C319.052 186.086 317.783 187.354 317.783 188.918C317.783 190.483 319.052 191.751 320.616 191.751Z" fill="#7431D7"/>
<path d="M327.695 191.751C329.26 191.751 330.528 190.483 330.528 188.918C330.528 187.354 329.26 186.086 327.695 186.086C326.13 186.086 324.861 187.354 324.861 188.918C324.861 190.483 326.13 191.751 327.695 191.751Z" fill="#7431D7"/>
<path d="M334.778 191.751C336.343 191.751 337.612 190.483 337.612 188.918C337.612 187.354 336.343 186.086 334.778 186.086C333.213 186.086 331.945 187.354 331.945 188.918C331.945 190.483 333.213 191.751 334.778 191.751Z" fill="#7431D7"/>
<path d="M341.857 191.751C343.421 191.751 344.69 190.483 344.69 188.918C344.69 187.354 343.421 186.086 341.857 186.086C340.292 186.086 339.023 187.354 339.023 188.918C339.023 190.483 340.292 191.751 341.857 191.751Z" fill="#7431D7"/>
<path d="M169.121 145.983C170.686 145.983 171.955 144.715 171.955 143.15C171.955 141.585 170.686 140.317 169.121 140.317C167.557 140.317 166.288 141.585 166.288 143.15C166.288 144.715 167.557 145.983 169.121 145.983Z" fill="#FFD037"/>
<path d="M119.095 188.923C120.66 188.923 121.929 187.655 121.929 186.09C121.929 184.526 120.66 183.258 119.095 183.258C117.53 183.258 116.262 184.526 116.262 186.09C116.262 187.655 117.53 188.923 119.095 188.923Z" fill="#FC6681"/>
<path d="M368.197 231.417C371.304 233.251 376.15 234.443 382.289 230.502L382.229 239.229C382.667 245.193 390.068 267.016 390.068 267.016L395.288 284.958C399.028 297.633 400.959 310.772 401.024 323.987C401.024 328.366 401.432 332.879 402.689 336.273C405.468 343.783 401.596 353.459 399.916 357.062C397.087 358.018 394.212 358.827 391.301 359.488C391.039 359.548 390.782 359.626 390.531 359.721L390.496 359.672C390.496 359.672 382.662 362.778 379.182 362.35C376.588 362.032 374.962 365.268 376.995 367.648C375.076 368.145 373.108 368.498 371.781 368.334C368.301 367.907 366.556 373.891 373.088 375.6C379.62 377.31 416.627 375.6 416.627 375.6C417.668 375.08 418.507 374.228 419.01 373.179C419.514 372.13 419.655 370.943 419.411 369.805C422.254 369.696 424.029 369.612 424.029 369.612C424.029 369.612 430.56 366.63 424.029 358.494L423.681 358.757L422.284 354.647V349.096C422.284 349.096 430.555 309.336 427.946 304.634C425.336 299.933 424.029 275.992 424.029 275.992L424.914 249.915C427.275 245.044 428.483 237.41 429.094 231.441C429.982 228.594 430.543 225.654 430.764 222.679C430.869 221.278 430.953 219.807 431.008 218.281C431.03 214.934 430.482 211.608 429.387 208.445C431.873 204.867 435.914 199.335 439.249 196.065C444.474 190.936 443.166 184.947 443.166 184.947L440.989 170.41L435.765 145.615C436.421 138.737 434.984 134.776 433.399 132.539C433.777 130.318 434.13 128.096 434.393 125.864C435.551 116.16 435.035 106.33 432.867 96.8001C432.111 93.4752 431.082 90.0658 428.751 87.546C426.112 84.6932 421.827 82.9537 420.843 79.2163C420.599 78.2869 420.589 77.2979 420.236 76.4033C419.282 73.9581 416.26 73.0685 413.615 72.7504C408.903 72.1788 402.088 71.7564 397.559 73.5953C394.398 74.8875 390.044 78.446 388.314 82.2629C387.32 84.0173 386.857 85.8612 387.28 87.5957C387.446 88.2348 387.699 88.8484 388.03 89.4197C387.356 91.2478 387.012 93.1815 387.016 95.1302C387.032 98.4798 388.056 101.747 389.955 104.507C391.854 107.266 394.54 109.39 397.664 110.602C397.768 110.93 397.863 111.253 397.942 111.571C398.14 112.337 398.283 113.116 398.37 113.902C398.285 115.393 398.191 116.928 398.121 118.444C398.071 118.653 398.018 118.858 397.962 119.061C394.218 120.718 390.567 122.58 387.026 124.637C389.641 128.484 386.589 144.73 386.589 144.73C380.057 148.577 373.526 158.413 380.495 168.671C387.464 178.929 383.542 190.042 383.542 190.042L382.453 206.756V206.785L382.234 210.13H382.319L382.234 211.398L382.423 211.432V212.794C379.366 213.917 374.897 216.184 372.233 220.373C370.973 222.434 369.44 224.315 367.675 225.965C367.269 226.315 366.954 226.758 366.754 227.256C366.555 227.753 366.478 228.292 366.529 228.825C366.58 229.359 366.758 229.873 367.048 230.323C367.338 230.774 367.732 231.149 368.197 231.417ZM420.768 187.005C420.506 184.113 421.041 181.205 422.314 178.596C423.338 178.616 424.364 178.627 425.391 178.631C425.495 179.351 425.619 180.037 425.769 180.663C426.653 184.431 423.119 186.235 420.763 187L420.768 187.005Z" fill="url(#paint1_linear)"/>
<path d="M421.628 352.699L423.303 357.723L417.835 363.19L399.821 367.38L386.832 366.123L387.672 361.515C387.92 360.525 388.437 359.622 389.165 358.906C389.892 358.189 390.804 357.687 391.798 357.455C397.137 356.203 407.317 353.34 409.454 349.369L421.628 352.699Z" fill="#DB8B8B"/>
<path opacity="0.1" d="M421.628 352.699L423.303 357.723L417.835 363.19L399.821 367.38L386.832 366.123L387.672 361.515C387.92 360.525 388.437 359.622 389.165 358.906C389.892 358.189 390.804 357.687 391.798 357.455C397.137 356.203 407.317 353.34 409.454 349.369L421.628 352.699Z" fill="black"/>
<path d="M391.043 364.845L393.558 361.496L391.043 357.614C391.043 357.614 383.502 360.656 380.152 360.238C376.801 359.821 375.126 365.705 381.409 367.36C387.692 369.015 423.303 367.36 423.303 367.36C423.303 367.36 429.586 364.428 423.303 356.471L417.835 360.661C417.835 360.661 408.619 365.685 404.011 364.85L391.043 364.845Z" fill="#2E3037"/>
<path d="M379.729 371.957L392.718 373.215L410.732 369.025L416.2 363.558L415.757 362.226L415.131 360.357L414.505 358.538L402.356 355.189C401.735 356.202 400.884 357.053 399.871 357.674C395.924 360.372 388.836 362.321 384.675 363.295C384.506 363.336 384.34 363.388 384.178 363.449C383.297 363.745 382.504 364.258 381.874 364.94C381.243 365.623 380.794 366.453 380.569 367.355L379.729 371.957Z" fill="#DB8B8B"/>
<path opacity="0.1" d="M379.729 371.957L392.718 373.215L410.732 369.025L416.2 363.558L415.757 362.226L410.757 366.073C410.757 366.073 401.541 371.098 396.933 370.263H383.919L386.435 366.913L384.178 363.434C383.297 363.73 382.504 364.243 381.874 364.926C381.243 365.608 380.794 366.439 380.569 367.34L379.729 371.957Z" fill="black"/>
<path d="M383.919 370.71L386.435 367.36L383.919 363.479C383.919 363.479 376.379 366.52 373.028 366.103C369.678 365.685 368.003 371.57 374.286 373.225C380.569 374.88 416.18 373.225 416.18 373.225C416.18 373.225 422.463 370.292 416.18 362.336L410.712 366.525C410.712 366.525 401.496 371.55 396.888 370.715L383.919 370.71Z" fill="#2E3037"/>
<path d="M394.393 127.763C394.393 127.763 414.505 129.855 411.572 121.481C410.752 119.106 410.538 116.564 410.951 114.086C411.472 111.013 412.688 108.1 414.505 105.567L395.651 108.499C396.78 110.388 397.64 112.426 398.206 114.553C400.452 123.434 394.393 127.763 394.393 127.763Z" fill="#DB8B8B"/>
<path d="M428.746 223.266C428.746 223.266 428.329 241.277 424.138 250.074L423.298 275.624C423.298 275.624 424.556 299.083 427.071 303.69C429.586 308.297 421.603 347.252 421.603 347.252V353.956C421.603 353.956 408.182 358.981 404.424 353.116L408.197 303.267L406.522 234.155L428.746 223.266Z" fill="#474463"/>
<path opacity="0.1" d="M428.746 223.266C428.746 223.266 428.329 241.277 424.138 250.074L423.298 275.624C423.298 275.624 424.556 299.083 427.071 303.69C429.586 308.297 421.603 347.252 421.603 347.252V353.956C421.603 353.956 408.182 358.981 404.424 353.116L408.197 303.267L406.522 234.155L428.746 223.266Z" fill="black"/>
<path d="M437.127 165.46L439.642 172.165L441.735 186.409C442.017 188.393 441.823 190.416 441.167 192.31C440.51 194.204 439.412 195.914 437.962 197.298C432.936 202.322 426.231 212.794 426.231 212.794L418.278 188.938C418.278 188.938 426.231 187.681 424.983 182.234C423.736 176.787 424.138 166.698 424.138 166.698L437.127 165.46Z" fill="#FC6681"/>
<path opacity="0.05" d="M437.127 165.46L439.642 172.165L441.735 186.409C442.017 188.393 441.823 190.416 441.167 192.31C440.51 194.204 439.412 195.914 437.962 197.298C432.936 202.322 426.231 212.794 426.231 212.794L418.278 188.938C418.278 188.938 426.231 187.681 424.983 182.234C423.736 176.787 424.138 166.698 424.138 166.698L437.127 165.46Z" fill="black"/>
<path opacity="0.1" d="M399.891 357.679C405.264 366.128 413.63 361.342 415.111 360.387L414.505 358.538L402.356 355.189C401.742 356.201 400.897 357.054 399.891 357.679Z" fill="black"/>
<path d="M383.084 239.602C383.502 245.467 390.625 266.828 390.625 266.828L395.651 284.406C399.252 296.836 401.11 309.705 401.173 322.645C401.173 326.934 401.566 331.358 402.779 334.683C406.129 343.897 399.428 356.466 399.428 356.466C405.294 366.938 415.335 359.816 415.335 359.816V353.116C415.335 353.116 423.288 316.671 421.201 309.554C419.113 302.437 418.268 283.164 418.268 283.164V248.374C424.979 241.688 429.06 232.811 429.765 223.365C429.865 221.994 429.944 220.552 429.999 219.056C430.337 209.613 423.875 198.525 421.35 194.579C420.743 193.625 420.356 193.088 420.356 193.088L383.363 207.76L383.278 207.794V209.226V212.392L383.084 239.602Z" fill="#474463"/>
<path opacity="0.1" d="M395.651 108.494C396.78 110.383 397.64 112.421 398.206 114.548C400.254 115.325 402.436 115.684 404.625 115.603C406.814 115.523 408.965 115.005 410.951 114.081C411.473 111.01 412.689 108.098 414.505 105.567L395.651 108.494Z" fill="black"/>
<path d="M404.031 114.771C413.055 114.771 420.37 107.457 420.37 98.4352C420.37 89.4129 413.055 82.0989 404.031 82.0989C395.008 82.0989 387.692 89.4129 387.692 98.4352C387.692 107.457 395.008 114.771 404.031 114.771Z" fill="#DB8B8B"/>
<path opacity="0.1" d="M383.084 212.377L383.263 212.411C400.83 216.025 422.886 197.715 422.886 197.715C422.295 196.719 421.784 195.677 421.36 194.599C420.753 193.645 420.365 193.108 420.365 193.108L383.373 207.779L383.278 209.246L383.084 212.377Z" fill="black"/>
<path d="M387.692 127.341C387.692 127.341 411.154 113.097 418.695 118.961L429.169 132.38C429.169 132.38 435.874 134.472 434.636 147.876L439.642 172.165L424.561 175.937C424.561 175.937 415.762 184.316 422.886 196.463C422.886 196.463 400.681 214.891 383.084 211.124L384.342 191.438C384.342 191.438 388.115 180.549 381.409 170.495C374.704 160.441 380.992 150.809 387.275 147.036C387.275 147.032 390.203 131.113 387.692 127.341Z" fill="#FC6681"/>
<path d="M386.435 212.794C386.435 212.794 377.636 214.469 373.446 221.174C372.237 223.185 370.762 225.023 369.062 226.64C368.679 226.987 368.383 227.419 368.196 227.9C368.009 228.381 367.937 228.9 367.985 229.414C368.033 229.928 368.201 230.424 368.474 230.862C368.747 231.3 369.118 231.669 369.559 231.938C372.884 233.926 378.307 235.164 385.157 229.538C396.908 219.916 386.435 212.794 386.435 212.794Z" fill="#DB8B8B"/>
<path opacity="0.1" d="M399.423 135.302C399.423 135.302 407.804 134.462 409.897 156.246C411.99 178.029 415.365 183.054 415.365 183.054C415.365 183.054 417.457 194.366 412.432 201.065C407.406 207.765 397.768 222.008 397.768 222.008C397.768 222.008 387.295 224.941 385.202 214.469L398.191 190.176C398.191 190.176 400.283 181.796 395.258 175.932C390.232 170.067 386.435 131.113 399.423 135.302Z" fill="black"/>
<path d="M398.568 134.045C398.568 134.045 406.949 133.205 409.042 154.988C411.135 176.772 414.51 181.796 414.51 181.796C414.51 181.796 416.602 193.108 411.577 199.808C406.551 206.507 396.913 220.751 396.913 220.751C396.913 220.751 386.44 223.683 384.347 213.212L397.336 188.918C397.336 188.918 399.428 180.539 394.403 174.675C389.377 168.81 385.595 129.855 398.568 134.045Z" fill="#FC6681"/>
<path opacity="0.1" d="M391.669 149.75C391.669 149.75 390.834 162.722 394.592 169.859C398.35 176.995 398.365 186.195 394.592 191.229" fill="black"/>
<path opacity="0.1" d="M389.576 133.836C389.576 133.836 392.926 130.487 402.565 130.064C412.203 129.642 416.389 126.714 416.389 126.714" fill="black"/>
<path opacity="0.1" d="M412.879 77.3277C415.424 77.6408 418.347 78.5156 419.252 80.9061C419.59 81.7858 419.6 82.7549 419.833 83.6644C420.783 87.3223 424.904 89.027 427.444 91.8251C429.685 94.3101 430.675 97.635 431.42 100.89C433.512 110.225 434.016 119.846 432.912 129.348C432.096 136.306 430.426 143.135 429.959 150.113C429.492 157.091 430.347 164.431 434.159 170.296C435.8 172.816 437.967 175.032 439.13 177.806C436.729 179.754 433.414 180.032 430.317 180.136C426.715 180.259 423.111 180.259 419.505 180.136C417.616 180.072 415.643 179.948 414.013 178.993C412.805 178.221 411.813 177.156 411.129 175.897C409.067 172.418 408.55 168.194 408.644 164.138C408.739 160.083 409.375 156.047 409.449 151.987C409.489 149.775 409.315 147.424 408.043 145.615C407.123 144.308 405.726 143.428 404.533 142.37C400.06 138.394 398.509 132.022 398.36 126.033C398.21 120.045 399.2 114.046 398.693 108.077C398.494 105.741 397.619 102.933 395.322 102.481C394.597 102.337 393.831 102.481 393.135 102.202C391.291 101.492 391.47 98.8924 390.943 96.9889C390.352 94.8519 388.527 93.2018 388.015 91.025C386.807 85.9556 393.259 79.9072 397.49 78.1428C401.789 76.3437 408.346 76.7711 412.879 77.3277Z" fill="black"/>
<path d="M413.297 76.4928C415.842 76.8059 418.765 77.6806 419.67 80.0712C420.008 80.9508 420.017 81.92 420.251 82.8295C421.201 86.4874 425.321 88.1921 427.861 90.9902C430.103 93.4752 431.092 96.8001 431.838 100.055C433.93 109.39 434.434 119.011 433.329 128.513C432.514 135.471 430.844 142.3 430.377 149.278C429.909 156.256 430.764 163.596 434.577 169.461C436.217 171.981 438.385 174.197 439.548 176.971C437.147 178.919 433.831 179.197 430.735 179.302C427.132 179.424 423.529 179.424 419.923 179.302C418.034 179.237 416.061 179.113 414.43 178.158C413.223 177.386 412.231 176.321 411.547 175.062C409.484 171.583 408.967 167.359 409.062 163.303C409.156 159.248 409.793 155.212 409.867 151.152C409.907 148.94 409.733 146.589 408.46 144.78C407.541 143.473 406.144 142.593 404.951 141.535C400.477 137.559 398.926 131.187 398.777 125.198C398.628 119.21 399.617 113.211 399.11 107.242C398.911 104.906 398.037 102.098 395.74 101.646C395.014 101.502 394.249 101.646 393.553 101.367C391.709 100.657 391.888 98.0575 391.361 96.154C390.769 94.0169 388.945 92.3669 388.433 90.19C387.225 85.1206 393.677 79.0722 397.907 77.3078C402.207 75.5038 408.764 75.9312 413.297 76.4928Z" fill="#472727"/>
</g>
<defs>
<linearGradient id="paint0_linear" x1="237.793" y1="345.771" x2="237.793" y2="16.5003" gradientUnits="userSpaceOnUse">
<stop stop-color="#808080" stop-opacity="0.25"/>
<stop offset="0.54" stop-color="#808080" stop-opacity="0.12"/>
<stop offset="1" stop-color="#808080" stop-opacity="0.1"/>
</linearGradient>
<linearGradient id="paint1_linear" x1="-139973" y1="245440" x2="-139973" y2="59365.4" gradientUnits="userSpaceOnUse">
<stop stop-color="#808080" stop-opacity="0.25"/>
<stop offset="0.54" stop-color="#808080" stop-opacity="0.12"/>
<stop offset="1" stop-color="#808080" stop-opacity="0.1"/>
</linearGradient>
<clipPath id="clip0">
<rect width="480" height="398" fill="white"/>
</clipPath>
</defs>
</svg>
